<?xml version="1.0" encoding="utf-8" standalone="no"?>
<!DOCTYPE svg PUBLIC "-//W3C//DTD SVG 1.1//EN"
  "http://www.w3.org/Graphics/SVG/1.1/DTD/svg11.dtd">
<!-- Created with matplotlib (http://matplotlib.org/) -->
<svg height="345.6pt" version="1.1" viewBox="0 0 460.8 345.6" width="460.8pt" xmlns="http://www.w3.org/2000/svg" xmlns:xlink="http://www.w3.org/1999/xlink">
 <defs>
  <style type="text/css">
*{stroke-linecap:butt;stroke-linejoin:round;}
  </style>
 </defs>
 <g id="figure_1">
  <g id="patch_1">
   <path d="M 0 345.6 
L 460.8 345.6 
L 460.8 0 
L 0 0 
z
" style="fill:#ffffff;"/>
  </g>
  <g id="axes_1">
   <g id="patch_2">
    <path d="M 57.6 307.584 
L 414.72 307.584 
L 414.72 41.472 
L 57.6 41.472 
z
" style="fill:#ffffff;"/>
   </g>
   <g id="matplotlib.axis_1">
    <g id="xtick_1">
     <g id="line2d_1">
      <defs>
       <path d="M 0 0 
L 0 3.5 
" id="m3771b005f4" style="stroke:#000000;stroke-width:0.8;"/>
      </defs>
      <g>
       <use style="stroke:#000000;stroke-width:0.8;" x="109.905455" xlink:href="#m3771b005f4" y="307.584"/>
      </g>
     </g>
     <g id="text_1">
      <!-- 2000 -->
      <defs>
       <path d="M 19.1875 8.296875 
L 53.609375 8.296875 
L 53.609375 0 
L 7.328125 0 
L 7.328125 8.296875 
Q 12.9375 14.109375 22.625 23.890625 
Q 32.328125 33.6875 34.8125 36.53125 
Q 39.546875 41.84375 41.421875 45.53125 
Q 43.3125 49.21875 43.3125 52.78125 
Q 43.3125 58.59375 39.234375 62.25 
Q 35.15625 65.921875 28.609375 65.921875 
Q 23.96875 65.921875 18.8125 64.3125 
Q 13.671875 62.703125 7.8125 59.421875 
L 7.8125 69.390625 
Q 13.765625 71.78125 18.9375 73 
Q 24.125 74.21875 28.421875 74.21875 
Q 39.75 74.21875 46.484375 68.546875 
Q 53.21875 62.890625 53.21875 53.421875 
Q 53.21875 48.921875 51.53125 44.890625 
Q 49.859375 40.875 45.40625 35.40625 
Q 44.1875 33.984375 37.640625 27.21875 
Q 31.109375 20.453125 19.1875 8.296875 
z
" id="DejaVuSans-32"/>
       <path d="M 31.78125 66.40625 
Q 24.171875 66.40625 20.328125 58.90625 
Q 16.5 51.421875 16.5 36.375 
Q 16.5 21.390625 20.328125 13.890625 
Q 24.171875 6.390625 31.78125 6.390625 
Q 39.453125 6.390625 43.28125 13.890625 
Q 47.125 21.390625 47.125 36.375 
Q 47.125 51.421875 43.28125 58.90625 
Q 39.453125 66.40625 31.78125 66.40625 
z
M 31.78125 74.21875 
Q 44.046875 74.21875 50.515625 64.515625 
Q 56.984375 54.828125 56.984375 36.375 
Q 56.984375 17.96875 50.515625 8.265625 
Q 44.046875 -1.421875 31.78125 -1.421875 
Q 19.53125 -1.421875 13.0625 8.265625 
Q 6.59375 17.96875 6.59375 36.375 
Q 6.59375 54.828125 13.0625 64.515625 
Q 19.53125 74.21875 31.78125 74.21875 
z
" id="DejaVuSans-30"/>
      </defs>
      <g transform="translate(97.180455 322.182437)scale(0.1 -0.1)">
       <use xlink:href="#DejaVuSans-32"/>
       <use x="63.623047" xlink:href="#DejaVuSans-30"/>
       <use x="127.246094" xlink:href="#DejaVuSans-30"/>
       <use x="190.869141" xlink:href="#DejaVuSans-30"/>
      </g>
     </g>
    </g>
    <g id="xtick_2">
     <g id="line2d_2">
      <g>
       <use style="stroke:#000000;stroke-width:0.8;" x="182.050909" xlink:href="#m3771b005f4" y="307.584"/>
      </g>
     </g>
     <g id="text_2">
      <!-- 4000 -->
      <defs>
       <path d="M 37.796875 64.3125 
L 12.890625 25.390625 
L 37.796875 25.390625 
z
M 35.203125 72.90625 
L 47.609375 72.90625 
L 47.609375 25.390625 
L 58.015625 25.390625 
L 58.015625 17.1875 
L 47.609375 17.1875 
L 47.609375 0 
L 37.796875 0 
L 37.796875 17.1875 
L 4.890625 17.1875 
L 4.890625 26.703125 
z
" id="DejaVuSans-34"/>
      </defs>
      <g transform="translate(169.325909 322.182437)scale(0.1 -0.1)">
       <use xlink:href="#DejaVuSans-34"/>
       <use x="63.623047" xlink:href="#DejaVuSans-30"/>
       <use x="127.246094" xlink:href="#DejaVuSans-30"/>
       <use x="190.869141" xlink:href="#DejaVuSans-30"/>
      </g>
     </g>
    </g>
    <g id="xtick_3">
     <g id="line2d_3">
      <g>
       <use style="stroke:#000000;stroke-width:0.8;" x="254.196364" xlink:href="#m3771b005f4" y="307.584"/>
      </g>
     </g>
     <g id="text_3">
      <!-- 6000 -->
      <defs>
       <path d="M 33.015625 40.375 
Q 26.375 40.375 22.484375 35.828125 
Q 18.609375 31.296875 18.609375 23.390625 
Q 18.609375 15.53125 22.484375 10.953125 
Q 26.375 6.390625 33.015625 6.390625 
Q 39.65625 6.390625 43.53125 10.953125 
Q 47.40625 15.53125 47.40625 23.390625 
Q 47.40625 31.296875 43.53125 35.828125 
Q 39.65625 40.375 33.015625 40.375 
z
M 52.59375 71.296875 
L 52.59375 62.3125 
Q 48.875 64.0625 45.09375 64.984375 
Q 41.3125 65.921875 37.59375 65.921875 
Q 27.828125 65.921875 22.671875 59.328125 
Q 17.53125 52.734375 16.796875 39.40625 
Q 19.671875 43.65625 24.015625 45.921875 
Q 28.375 48.1875 33.59375 48.1875 
Q 44.578125 48.1875 50.953125 41.515625 
Q 57.328125 34.859375 57.328125 23.390625 
Q 57.328125 12.15625 50.6875 5.359375 
Q 44.046875 -1.421875 33.015625 -1.421875 
Q 20.359375 -1.421875 13.671875 8.265625 
Q 6.984375 17.96875 6.984375 36.375 
Q 6.984375 53.65625 15.1875 63.9375 
Q 23.390625 74.21875 37.203125 74.21875 
Q 40.921875 74.21875 44.703125 73.484375 
Q 48.484375 72.75 52.59375 71.296875 
z
" id="DejaVuSans-36"/>
      </defs>
      <g transform="translate(241.471364 322.182437)scale(0.1 -0.1)">
       <use xlink:href="#DejaVuSans-36"/>
       <use x="63.623047" xlink:href="#DejaVuSans-30"/>
       <use x="127.246094" xlink:href="#DejaVuSans-30"/>
       <use x="190.869141" xlink:href="#DejaVuSans-30"/>
      </g>
     </g>
    </g>
    <g id="xtick_4">
     <g id="line2d_4">
      <g>
       <use style="stroke:#000000;stroke-width:0.8;" x="326.341818" xlink:href="#m3771b005f4" y="307.584"/>
      </g>
     </g>
     <g id="text_4">
      <!-- 8000 -->
      <defs>
       <path d="M 31.78125 34.625 
Q 24.75 34.625 20.71875 30.859375 
Q 16.703125 27.09375 16.703125 20.515625 
Q 16.703125 13.921875 20.71875 10.15625 
Q 24.75 6.390625 31.78125 6.390625 
Q 38.8125 6.390625 42.859375 10.171875 
Q 46.921875 13.96875 46.921875 20.515625 
Q 46.921875 27.09375 42.890625 30.859375 
Q 38.875 34.625 31.78125 34.625 
z
M 21.921875 38.8125 
Q 15.578125 40.375 12.03125 44.71875 
Q 8.5 49.078125 8.5 55.328125 
Q 8.5 64.0625 14.71875 69.140625 
Q 20.953125 74.21875 31.78125 74.21875 
Q 42.671875 74.21875 48.875 69.140625 
Q 55.078125 64.0625 55.078125 55.328125 
Q 55.078125 49.078125 51.53125 44.71875 
Q 48 40.375 41.703125 38.8125 
Q 48.828125 37.15625 52.796875 32.3125 
Q 56.78125 27.484375 56.78125 20.515625 
Q 56.78125 9.90625 50.3125 4.234375 
Q 43.84375 -1.421875 31.78125 -1.421875 
Q 19.734375 -1.421875 13.25 4.234375 
Q 6.78125 9.90625 6.78125 20.515625 
Q 6.78125 27.484375 10.78125 32.3125 
Q 14.796875 37.15625 21.921875 38.8125 
z
M 18.3125 54.390625 
Q 18.3125 48.734375 21.84375 45.5625 
Q 25.390625 42.390625 31.78125 42.390625 
Q 38.140625 42.390625 41.71875 45.5625 
Q 45.3125 48.734375 45.3125 54.390625 
Q 45.3125 60.0625 41.71875 63.234375 
Q 38.140625 66.40625 31.78125 66.40625 
Q 25.390625 66.40625 21.84375 63.234375 
Q 18.3125 60.0625 18.3125 54.390625 
z
" id="DejaVuSans-38"/>
      </defs>
      <g transform="translate(313.616818 322.182437)scale(0.1 -0.1)">
       <use xlink:href="#DejaVuSans-38"/>
       <use x="63.623047" xlink:href="#DejaVuSans-30"/>
       <use x="127.246094" xlink:href="#DejaVuSans-30"/>
       <use x="190.869141" xlink:href="#DejaVuSans-30"/>
      </g>
     </g>
    </g>
    <g id="xtick_5">
     <g id="line2d_5">
      <g>
       <use style="stroke:#000000;stroke-width:0.8;" x="398.487273" xlink:href="#m3771b005f4" y="307.584"/>
      </g>
     </g>
     <g id="text_5">
      <!-- 10000 -->
      <defs>
       <path d="M 12.40625 8.296875 
L 28.515625 8.296875 
L 28.515625 63.921875 
L 10.984375 60.40625 
L 10.984375 69.390625 
L 28.421875 72.90625 
L 38.28125 72.90625 
L 38.28125 8.296875 
L 54.390625 8.296875 
L 54.390625 0 
L 12.40625 0 
z
" id="DejaVuSans-31"/>
      </defs>
      <g transform="translate(382.581023 322.182437)scale(0.1 -0.1)">
       <use xlink:href="#DejaVuSans-31"/>
       <use x="63.623047" xlink:href="#DejaVuSans-30"/>
       <use x="127.246094" xlink:href="#DejaVuSans-30"/>
       <use x="190.869141" xlink:href="#DejaVuSans-30"/>
       <use x="254.492188" xlink:href="#DejaVuSans-30"/>
      </g>
     </g>
    </g>
    <g id="text_6">
     <!-- times -->
     <defs>
      <path d="M 18.3125 70.21875 
L 18.3125 54.6875 
L 36.8125 54.6875 
L 36.8125 47.703125 
L 18.3125 47.703125 
L 18.3125 18.015625 
Q 18.3125 11.328125 20.140625 9.421875 
Q 21.96875 7.515625 27.59375 7.515625 
L 36.8125 7.515625 
L 36.8125 0 
L 27.59375 0 
Q 17.1875 0 13.234375 3.875 
Q 9.28125 7.765625 9.28125 18.015625 
L 9.28125 47.703125 
L 2.6875 47.703125 
L 2.6875 54.6875 
L 9.28125 54.6875 
L 9.28125 70.21875 
z
" id="DejaVuSans-74"/>
      <path d="M 9.421875 54.6875 
L 18.40625 54.6875 
L 18.40625 0 
L 9.421875 0 
z
M 9.421875 75.984375 
L 18.40625 75.984375 
L 18.40625 64.59375 
L 9.421875 64.59375 
z
" id="DejaVuSans-69"/>
      <path d="M 52 44.1875 
Q 55.375 50.25 60.0625 53.125 
Q 64.75 56 71.09375 56 
Q 79.640625 56 84.28125 50.015625 
Q 88.921875 44.046875 88.921875 33.015625 
L 88.921875 0 
L 79.890625 0 
L 79.890625 32.71875 
Q 79.890625 40.578125 77.09375 44.375 
Q 74.3125 48.1875 68.609375 48.1875 
Q 61.625 48.1875 57.5625 43.546875 
Q 53.515625 38.921875 53.515625 30.90625 
L 53.515625 0 
L 44.484375 0 
L 44.484375 32.71875 
Q 44.484375 40.625 41.703125 44.40625 
Q 38.921875 48.1875 33.109375 48.1875 
Q 26.21875 48.1875 22.15625 43.53125 
Q 18.109375 38.875 18.109375 30.90625 
L 18.109375 0 
L 9.078125 0 
L 9.078125 54.6875 
L 18.109375 54.6875 
L 18.109375 46.1875 
Q 21.1875 51.21875 25.484375 53.609375 
Q 29.78125 56 35.6875 56 
Q 41.65625 56 45.828125 52.96875 
Q 50 49.953125 52 44.1875 
z
" id="DejaVuSans-6d"/>
      <path d="M 56.203125 29.59375 
L 56.203125 25.203125 
L 14.890625 25.203125 
Q 15.484375 15.921875 20.484375 11.0625 
Q 25.484375 6.203125 34.421875 6.203125 
Q 39.59375 6.203125 44.453125 7.46875 
Q 49.3125 8.734375 54.109375 11.28125 
L 54.109375 2.78125 
Q 49.265625 0.734375 44.1875 -0.34375 
Q 39.109375 -1.421875 33.890625 -1.421875 
Q 20.796875 -1.421875 13.15625 6.1875 
Q 5.515625 13.8125 5.515625 26.8125 
Q 5.515625 40.234375 12.765625 48.109375 
Q 20.015625 56 32.328125 56 
Q 43.359375 56 49.78125 48.890625 
Q 56.203125 41.796875 56.203125 29.59375 
z
M 47.21875 32.234375 
Q 47.125 39.59375 43.09375 43.984375 
Q 39.0625 48.390625 32.421875 48.390625 
Q 24.90625 48.390625 20.390625 44.140625 
Q 15.875 39.890625 15.1875 32.171875 
z
" id="DejaVuSans-65"/>
      <path d="M 44.28125 53.078125 
L 44.28125 44.578125 
Q 40.484375 46.53125 36.375 47.5 
Q 32.28125 48.484375 27.875 48.484375 
Q 21.1875 48.484375 17.84375 46.4375 
Q 14.5 44.390625 14.5 40.28125 
Q 14.5 37.15625 16.890625 35.375 
Q 19.28125 33.59375 26.515625 31.984375 
L 29.59375 31.296875 
Q 39.15625 29.25 43.1875 25.515625 
Q 47.21875 21.78125 47.21875 15.09375 
Q 47.21875 7.46875 41.1875 3.015625 
Q 35.15625 -1.421875 24.609375 -1.421875 
Q 20.21875 -1.421875 15.453125 -0.5625 
Q 10.6875 0.296875 5.421875 2 
L 5.421875 11.28125 
Q 10.40625 8.6875 15.234375 7.390625 
Q 20.0625 6.109375 24.8125 6.109375 
Q 31.15625 6.109375 34.5625 8.28125 
Q 37.984375 10.453125 37.984375 14.40625 
Q 37.984375 18.0625 35.515625 20.015625 
Q 33.0625 21.96875 24.703125 23.78125 
L 21.578125 24.515625 
Q 13.234375 26.265625 9.515625 29.90625 
Q 5.8125 33.546875 5.8125 39.890625 
Q 5.8125 47.609375 11.28125 51.796875 
Q 16.75 56 26.8125 56 
Q 31.78125 56 36.171875 55.265625 
Q 40.578125 54.546875 44.28125 53.078125 
z
" id="DejaVuSans-73"/>
     </defs>
     <g transform="translate(222.259219 335.860562)scale(0.1 -0.1)">
      <use xlink:href="#DejaVuSans-74"/>
      <use x="39.208984" xlink:href="#DejaVuSans-69"/>
      <use x="66.992188" xlink:href="#DejaVuSans-6d"/>
      <use x="164.404297" xlink:href="#DejaVuSans-65"/>
      <use x="225.927734" xlink:href="#DejaVuSans-73"/>
     </g>
    </g>
   </g>
   <g id="matplotlib.axis_2">
    <g id="ytick_1">
     <g id="line2d_6">
      <defs>
       <path d="M 0 0 
L -3.5 0 
" id="mae8fafff3e" style="stroke:#000000;stroke-width:0.8;"/>
      </defs>
      <g>
       <use style="stroke:#000000;stroke-width:0.8;" x="57.6" xlink:href="#mae8fafff3e" y="307.584"/>
      </g>
     </g>
     <g id="text_7">
      <!-- 0.0 -->
      <defs>
       <path d="M 10.6875 12.40625 
L 21 12.40625 
L 21 0 
L 10.6875 0 
z
" id="DejaVuSans-2e"/>
      </defs>
      <g transform="translate(34.696875 311.383219)scale(0.1 -0.1)">
       <use xlink:href="#DejaVuSans-30"/>
       <use x="63.623047" xlink:href="#DejaVuSans-2e"/>
       <use x="95.410156" xlink:href="#DejaVuSans-30"/>
      </g>
     </g>
    </g>
    <g id="ytick_2">
     <g id="line2d_7">
      <g>
       <use style="stroke:#000000;stroke-width:0.8;" x="57.6" xlink:href="#mae8fafff3e" y="254.3616"/>
      </g>
     </g>
     <g id="text_8">
      <!-- 0.2 -->
      <g transform="translate(34.696875 258.160819)scale(0.1 -0.1)">
       <use xlink:href="#DejaVuSans-30"/>
       <use x="63.623047" xlink:href="#DejaVuSans-2e"/>
       <use x="95.410156" xlink:href="#DejaVuSans-32"/>
      </g>
     </g>
    </g>
    <g id="ytick_3">
     <g id="line2d_8">
      <g>
       <use style="stroke:#000000;stroke-width:0.8;" x="57.6" xlink:href="#mae8fafff3e" y="201.1392"/>
      </g>
     </g>
     <g id="text_9">
      <!-- 0.4 -->
      <g transform="translate(34.696875 204.938419)scale(0.1 -0.1)">
       <use xlink:href="#DejaVuSans-30"/>
       <use x="63.623047" xlink:href="#DejaVuSans-2e"/>
       <use x="95.410156" xlink:href="#DejaVuSans-34"/>
      </g>
     </g>
    </g>
    <g id="ytick_4">
     <g id="line2d_9">
      <g>
       <use style="stroke:#000000;stroke-width:0.8;" x="57.6" xlink:href="#mae8fafff3e" y="147.9168"/>
      </g>
     </g>
     <g id="text_10">
      <!-- 0.6 -->
      <g transform="translate(34.696875 151.716019)scale(0.1 -0.1)">
       <use xlink:href="#DejaVuSans-30"/>
       <use x="63.623047" xlink:href="#DejaVuSans-2e"/>
       <use x="95.410156" xlink:href="#DejaVuSans-36"/>
      </g>
     </g>
    </g>
    <g id="ytick_5">
     <g id="line2d_10">
      <g>
       <use style="stroke:#000000;stroke-width:0.8;" x="57.6" xlink:href="#mae8fafff3e" y="94.6944"/>
      </g>
     </g>
     <g id="text_11">
      <!-- 0.8 -->
      <g transform="translate(34.696875 98.493619)scale(0.1 -0.1)">
       <use xlink:href="#DejaVuSans-30"/>
       <use x="63.623047" xlink:href="#DejaVuSans-2e"/>
       <use x="95.410156" xlink:href="#DejaVuSans-38"/>
      </g>
     </g>
    </g>
    <g id="ytick_6">
     <g id="line2d_11">
      <g>
       <use style="stroke:#000000;stroke-width:0.8;" x="57.6" xlink:href="#mae8fafff3e" y="41.472"/>
      </g>
     </g>
     <g id="text_12">
      <!-- 1.0 -->
      <g transform="translate(34.696875 45.271219)scale(0.1 -0.1)">
       <use xlink:href="#DejaVuSans-31"/>
       <use x="63.623047" xlink:href="#DejaVuSans-2e"/>
       <use x="95.410156" xlink:href="#DejaVuSans-30"/>
      </g>
     </g>
    </g>
    <g id="text_13">
     <!-- F1 -->
     <defs>
      <path d="M 9.8125 72.90625 
L 51.703125 72.90625 
L 51.703125 64.59375 
L 19.671875 64.59375 
L 19.671875 43.109375 
L 48.578125 43.109375 
L 48.578125 34.8125 
L 19.671875 34.8125 
L 19.671875 0 
L 9.8125 0 
z
" id="DejaVuSans-46"/>
     </defs>
     <g transform="translate(28.617188 180.585031)rotate(-90)scale(0.1 -0.1)">
      <use xlink:href="#DejaVuSans-46"/>
      <use x="57.519531" xlink:href="#DejaVuSans-31"/>
     </g>
    </g>
   </g>
   <g id="line2d_12">
    <path clip-path="url(#pb6d9e13eb5)" d="M 73.832727 217.276172 
L 109.905455 190.018101 
L 145.978182 148.645874 
L 182.050909 113.799877 
L 218.123636 91.5264 
L 254.196364 77.985042 
L 290.269091 62.44198 
L 326.341818 61.173109 
L 362.414545 52.298827 
L 398.487273 54.993366 
" style="fill:none;stroke:#0000ff;stroke-linecap:square;stroke-width:1.5;"/>
    <defs>
     <path d="M 0 -5 
L -1.12257 -1.545085 
L -4.755283 -1.545085 
L -1.816356 0.59017 
L -2.938926 4.045085 
L -0 1.90983 
L 2.938926 4.045085 
L 1.816356 0.59017 
L 4.755283 -1.545085 
L 1.12257 -1.545085 
z
" id="m6013f6eedc" style="stroke:#ff0000;stroke-linejoin:bevel;"/>
    </defs>
    <g clip-path="url(#pb6d9e13eb5)">
     <use style="fill:#ffffff;stroke:#ff0000;stroke-linejoin:bevel;" x="73.832727" xlink:href="#m6013f6eedc" y="217.276172"/>
     <use style="fill:#ffffff;stroke:#ff0000;stroke-linejoin:bevel;" x="109.905455" xlink:href="#m6013f6eedc" y="190.018101"/>
     <use style="fill:#ffffff;stroke:#ff0000;stroke-linejoin:bevel;" x="145.978182" xlink:href="#m6013f6eedc" y="148.645874"/>
     <use style="fill:#ffffff;stroke:#ff0000;stroke-linejoin:bevel;" x="182.050909" xlink:href="#m6013f6eedc" y="113.799877"/>
     <use style="fill:#ffffff;stroke:#ff0000;stroke-linejoin:bevel;" x="218.123636" xlink:href="#m6013f6eedc" y="91.5264"/>
     <use style="fill:#ffffff;stroke:#ff0000;stroke-linejoin:bevel;" x="254.196364" xlink:href="#m6013f6eedc" y="77.985042"/>
     <use style="fill:#ffffff;stroke:#ff0000;stroke-linejoin:bevel;" x="290.269091" xlink:href="#m6013f6eedc" y="62.44198"/>
     <use style="fill:#ffffff;stroke:#ff0000;stroke-linejoin:bevel;" x="326.341818" xlink:href="#m6013f6eedc" y="61.173109"/>
     <use style="fill:#ffffff;stroke:#ff0000;stroke-linejoin:bevel;" x="362.414545" xlink:href="#m6013f6eedc" y="52.298827"/>
     <use style="fill:#ffffff;stroke:#ff0000;stroke-linejoin:bevel;" x="398.487273" xlink:href="#m6013f6eedc" y="54.993366"/>
    </g>
   </g>
   <g id="line2d_13">
    <path clip-path="url(#pb6d9e13eb5)" d="M 73.832727 276.760216 
L 109.905455 241.056 
L 145.978182 201.312 
L 182.050909 156.851947 
L 218.123636 133.108364 
L 254.196364 102.364885 
L 290.269091 78.596652 
L 326.341818 68.959165 
L 362.414545 68.959165 
L 398.487273 71.989431 
" style="fill:none;stroke:#0000ff;stroke-linecap:square;stroke-width:1.5;"/>
    <defs>
     <path d="M 0 5 
C 1.326016 5 2.597899 4.473168 3.535534 3.535534 
C 4.473168 2.597899 5 1.326016 5 0 
C 5 -1.326016 4.473168 -2.597899 3.535534 -3.535534 
C 2.597899 -4.473168 1.326016 -5 0 -5 
C -1.326016 -5 -2.597899 -4.473168 -3.535534 -3.535534 
C -4.473168 -2.597899 -5 -1.326016 -5 0 
C -5 1.326016 -4.473168 2.597899 -3.535534 3.535534 
C -2.597899 4.473168 -1.326016 5 0 5 
z
" id="m7db4b7d8f5" style="stroke:#0000ff;"/>
    </defs>
    <g clip-path="url(#pb6d9e13eb5)">
     <use style="fill:#0000ff;stroke:#0000ff;" x="73.832727" xlink:href="#m7db4b7d8f5" y="276.760216"/>
     <use style="fill:#0000ff;stroke:#0000ff;" x="109.905455" xlink:href="#m7db4b7d8f5" y="241.056"/>
     <use style="fill:#0000ff;stroke:#0000ff;" x="145.978182" xlink:href="#m7db4b7d8f5" y="201.312"/>
     <use style="fill:#0000ff;stroke:#0000ff;" x="182.050909" xlink:href="#m7db4b7d8f5" y="156.851947"/>
     <use style="fill:#0000ff;stroke:#0000ff;" x="218.123636" xlink:href="#m7db4b7d8f5" y="133.108364"/>
     <use style="fill:#0000ff;stroke:#0000ff;" x="254.196364" xlink:href="#m7db4b7d8f5" y="102.364885"/>
     <use style="fill:#0000ff;stroke:#0000ff;" x="290.269091" xlink:href="#m7db4b7d8f5" y="78.596652"/>
     <use style="fill:#0000ff;stroke:#0000ff;" x="326.341818" xlink:href="#m7db4b7d8f5" y="68.959165"/>
     <use style="fill:#0000ff;stroke:#0000ff;" x="362.414545" xlink:href="#m7db4b7d8f5" y="68.959165"/>
     <use style="fill:#0000ff;stroke:#0000ff;" x="398.487273" xlink:href="#m7db4b7d8f5" y="71.989431"/>
    </g>
   </g>
   <g id="line2d_14">
    <path clip-path="url(#pb6d9e13eb5)" d="M 73.832727 246.371797 
L 109.905455 241.056 
L 145.978182 192.922839 
L 182.050909 154.510726 
L 218.123636 126.775208 
L 254.196364 105.29561 
L 290.269091 89.972644 
L 326.341818 75.073239 
L 362.414545 72.196291 
L 398.487273 61.352554 
" style="fill:none;stroke:#ffd700;stroke-linecap:square;stroke-width:1.5;"/>
    <g clip-path="url(#pb6d9e13eb5)">
     <use style="fill:#ffffff;stroke:#ff0000;stroke-linejoin:bevel;" x="73.832727" xlink:href="#m6013f6eedc" y="246.371797"/>
     <use style="fill:#ffffff;stroke:#ff0000;stroke-linejoin:bevel;" x="109.905455" xlink:href="#m6013f6eedc" y="241.056"/>
     <use style="fill:#ffffff;stroke:#ff0000;stroke-linejoin:bevel;" x="145.978182" xlink:href="#m6013f6eedc" y="192.922839"/>
     <use style="fill:#ffffff;stroke:#ff0000;stroke-linejoin:bevel;" x="182.050909" xlink:href="#m6013f6eedc" y="154.510726"/>
     <use style="fill:#ffffff;stroke:#ff0000;stroke-linejoin:bevel;" x="218.123636" xlink:href="#m6013f6eedc" y="126.775208"/>
     <use style="fill:#ffffff;stroke:#ff0000;stroke-linejoin:bevel;" x="254.196364" xlink:href="#m6013f6eedc" y="105.29561"/>
     <use style="fill:#ffffff;stroke:#ff0000;stroke-linejoin:bevel;" x="290.269091" xlink:href="#m6013f6eedc" y="89.972644"/>
     <use style="fill:#ffffff;stroke:#ff0000;stroke-linejoin:bevel;" x="326.341818" xlink:href="#m6013f6eedc" y="75.073239"/>
     <use style="fill:#ffffff;stroke:#ff0000;stroke-linejoin:bevel;" x="362.414545" xlink:href="#m6013f6eedc" y="72.196291"/>
     <use style="fill:#ffffff;stroke:#ff0000;stroke-linejoin:bevel;" x="398.487273" xlink:href="#m6013f6eedc" y="61.352554"/>
    </g>
   </g>
   <g id="line2d_15">
    <path clip-path="url(#pb6d9e13eb5)" d="M 73.832727 284.518112 
L 109.905455 268.921669 
L 145.978182 230.581379 
L 182.050909 212.000914 
L 218.123636 167.145115 
L 254.196364 154.521967 
L 290.269091 120.523769 
L 326.341818 111.5904 
L 362.414545 98.805073 
L 398.487273 90.3605 
" style="fill:none;stroke:#ffd700;stroke-linecap:square;stroke-width:1.5;"/>
    <defs>
     <path d="M 0 5 
C 1.326016 5 2.597899 4.473168 3.535534 3.535534 
C 4.473168 2.597899 5 1.326016 5 0 
C 5 -1.326016 4.473168 -2.597899 3.535534 -3.535534 
C 2.597899 -4.473168 1.326016 -5 0 -5 
C -1.326016 -5 -2.597899 -4.473168 -3.535534 -3.535534 
C -4.473168 -2.597899 -5 -1.326016 -5 0 
C -5 1.326016 -4.473168 2.597899 -3.535534 3.535534 
C -2.597899 4.473168 -1.326016 5 0 5 
z
" id="m29b0d9fdae" style="stroke:#ffd700;"/>
    </defs>
    <g clip-path="url(#pb6d9e13eb5)">
     <use style="fill:#ffd700;stroke:#ffd700;" x="73.832727" xlink:href="#m29b0d9fdae" y="284.518112"/>
     <use style="fill:#ffd700;stroke:#ffd700;" x="109.905455" xlink:href="#m29b0d9fdae" y="268.921669"/>
     <use style="fill:#ffd700;stroke:#ffd700;" x="145.978182" xlink:href="#m29b0d9fdae" y="230.581379"/>
     <use style="fill:#ffd700;stroke:#ffd700;" x="182.050909" xlink:href="#m29b0d9fdae" y="212.000914"/>
     <use style="fill:#ffd700;stroke:#ffd700;" x="218.123636" xlink:href="#m29b0d9fdae" y="167.145115"/>
     <use style="fill:#ffd700;stroke:#ffd700;" x="254.196364" xlink:href="#m29b0d9fdae" y="154.521967"/>
     <use style="fill:#ffd700;stroke:#ffd700;" x="290.269091" xlink:href="#m29b0d9fdae" y="120.523769"/>
     <use style="fill:#ffd700;stroke:#ffd700;" x="326.341818" xlink:href="#m29b0d9fdae" y="111.5904"/>
     <use style="fill:#ffd700;stroke:#ffd700;" x="362.414545" xlink:href="#m29b0d9fdae" y="98.805073"/>
     <use style="fill:#ffd700;stroke:#ffd700;" x="398.487273" xlink:href="#m29b0d9fdae" y="90.3605"/>
    </g>
   </g>
   <g id="line2d_16">
    <path clip-path="url(#pb6d9e13eb5)" d="M 73.832727 250.800608 
L 109.905455 253.873321 
L 145.978182 224.154292 
L 182.050909 217.728 
L 218.123636 145.475406 
L 254.196364 140.003265 
L 290.269091 105.850187 
L 326.341818 81.726064 
L 362.414545 72.892453 
L 398.487273 69.817793 
" style="fill:none;stroke:#008000;stroke-linecap:square;stroke-width:1.5;"/>
    <g clip-path="url(#pb6d9e13eb5)">
     <use style="fill:#ffffff;stroke:#ff0000;stroke-linejoin:bevel;" x="73.832727" xlink:href="#m6013f6eedc" y="250.800608"/>
     <use style="fill:#ffffff;stroke:#ff0000;stroke-linejoin:bevel;" x="109.905455" xlink:href="#m6013f6eedc" y="253.873321"/>
     <use style="fill:#ffffff;stroke:#ff0000;stroke-linejoin:bevel;" x="145.978182" xlink:href="#m6013f6eedc" y="224.154292"/>
     <use style="fill:#ffffff;stroke:#ff0000;stroke-linejoin:bevel;" x="182.050909" xlink:href="#m6013f6eedc" y="217.728"/>
     <use style="fill:#ffffff;stroke:#ff0000;stroke-linejoin:bevel;" x="218.123636" xlink:href="#m6013f6eedc" y="145.475406"/>
     <use style="fill:#ffffff;stroke:#ff0000;stroke-linejoin:bevel;" x="254.196364" xlink:href="#m6013f6eedc" y="140.003265"/>
     <use style="fill:#ffffff;stroke:#ff0000;stroke-linejoin:bevel;" x="290.269091" xlink:href="#m6013f6eedc" y="105.850187"/>
     <use style="fill:#ffffff;stroke:#ff0000;stroke-linejoin:bevel;" x="326.341818" xlink:href="#m6013f6eedc" y="81.726064"/>
     <use style="fill:#ffffff;stroke:#ff0000;stroke-linejoin:bevel;" x="362.414545" xlink:href="#m6013f6eedc" y="72.892453"/>
     <use style="fill:#ffffff;stroke:#ff0000;stroke-linejoin:bevel;" x="398.487273" xlink:href="#m6013f6eedc" y="69.817793"/>
    </g>
   </g>
   <g id="line2d_17">
    <path clip-path="url(#pb6d9e13eb5)" d="M 73.832727 285.830975 
L 109.905455 270.370449 
L 145.978182 279.343543 
L 182.050909 218.774274 
L 218.123636 215.648714 
L 254.196364 188.916441 
L 290.269091 162.128017 
L 326.341818 133.261357 
L 362.414545 130.176 
L 398.487273 112.370453 
" style="fill:none;stroke:#008000;stroke-linecap:square;stroke-width:1.5;"/>
    <defs>
     <path d="M 0 5 
C 1.326016 5 2.597899 4.473168 3.535534 3.535534 
C 4.473168 2.597899 5 1.326016 5 0 
C 5 -1.326016 4.473168 -2.597899 3.535534 -3.535534 
C 2.597899 -4.473168 1.326016 -5 0 -5 
C -1.326016 -5 -2.597899 -4.473168 -3.535534 -3.535534 
C -4.473168 -2.597899 -5 -1.326016 -5 0 
C -5 1.326016 -4.473168 2.597899 -3.535534 3.535534 
C -2.597899 4.473168 -1.326016 5 0 5 
z
" id="m6e1bfdf610" style="stroke:#008000;"/>
    </defs>
    <g clip-path="url(#pb6d9e13eb5)">
     <use style="fill:#008000;stroke:#008000;" x="73.832727" xlink:href="#m6e1bfdf610" y="285.830975"/>
     <use style="fill:#008000;stroke:#008000;" x="109.905455" xlink:href="#m6e1bfdf610" y="270.370449"/>
     <use style="fill:#008000;stroke:#008000;" x="145.978182" xlink:href="#m6e1bfdf610" y="279.343543"/>
     <use style="fill:#008000;stroke:#008000;" x="182.050909" xlink:href="#m6e1bfdf610" y="218.774274"/>
     <use style="fill:#008000;stroke:#008000;" x="218.123636" xlink:href="#m6e1bfdf610" y="215.648714"/>
     <use style="fill:#008000;stroke:#008000;" x="254.196364" xlink:href="#m6e1bfdf610" y="188.916441"/>
     <use style="fill:#008000;stroke:#008000;" x="290.269091" xlink:href="#m6e1bfdf610" y="162.128017"/>
     <use style="fill:#008000;stroke:#008000;" x="326.341818" xlink:href="#m6e1bfdf610" y="133.261357"/>
     <use style="fill:#008000;stroke:#008000;" x="362.414545" xlink:href="#m6e1bfdf610" y="130.176"/>
     <use style="fill:#008000;stroke:#008000;" x="398.487273" xlink:href="#m6e1bfdf610" y="112.370453"/>
    </g>
   </g>
   <g id="patch_3">
    <path d="M 57.6 307.584 
L 57.6 41.472 
" style="fill:none;stroke:#000000;stroke-linecap:square;stroke-linejoin:miter;stroke-width:0.8;"/>
   </g>
   <g id="patch_4">
    <path d="M 414.72 307.584 
L 414.72 41.472 
" style="fill:none;stroke:#000000;stroke-linecap:square;stroke-linejoin:miter;stroke-width:0.8;"/>
   </g>
   <g id="patch_5">
    <path d="M 57.6 307.584 
L 414.72 307.584 
" style="fill:none;stroke:#000000;stroke-linecap:square;stroke-linejoin:miter;stroke-width:0.8;"/>
   </g>
   <g id="patch_6">
    <path d="M 57.6 41.472 
L 414.72 41.472 
" style="fill:none;stroke:#000000;stroke-linecap:square;stroke-linejoin:miter;stroke-width:0.8;"/>
   </g>
   <g id="legend_1">
    <g id="patch_7">
     <path d="M 290.6325 302.584 
L 407.72 302.584 
Q 409.72 302.584 409.72 300.584 
L 409.72 213.51525 
Q 409.72 211.51525 407.72 211.51525 
L 290.6325 211.51525 
Q 288.6325 211.51525 288.6325 213.51525 
L 288.6325 300.584 
Q 288.6325 302.584 290.6325 302.584 
z
" style="fill:#ffffff;opacity:0.8;stroke:#cccccc;stroke-linejoin:miter;"/>
    </g>
    <g id="line2d_18">
     <path d="M 292.6325 219.613687 
L 312.6325 219.613687 
" style="fill:none;stroke:#0000ff;stroke-linecap:square;stroke-width:1.5;"/>
    </g>
    <g id="line2d_19">
     <g>
      <use style="fill:#ffffff;stroke:#ff0000;stroke-linejoin:bevel;" x="302.6325" xlink:href="#m6013f6eedc" y="219.613687"/>
     </g>
    </g>
    <g id="text_14">
     <!-- k1=10,two-body -->
     <defs>
      <path d="M 9.078125 75.984375 
L 18.109375 75.984375 
L 18.109375 31.109375 
L 44.921875 54.6875 
L 56.390625 54.6875 
L 27.390625 29.109375 
L 57.625 0 
L 45.90625 0 
L 18.109375 26.703125 
L 18.109375 0 
L 9.078125 0 
z
" id="DejaVuSans-6b"/>
      <path d="M 10.59375 45.40625 
L 73.1875 45.40625 
L 73.1875 37.203125 
L 10.59375 37.203125 
z
M 10.59375 25.484375 
L 73.1875 25.484375 
L 73.1875 17.1875 
L 10.59375 17.1875 
z
" id="DejaVuSans-3d"/>
      <path d="M 11.71875 12.40625 
L 22.015625 12.40625 
L 22.015625 4 
L 14.015625 -11.625 
L 7.71875 -11.625 
L 11.71875 4 
z
" id="DejaVuSans-2c"/>
      <path d="M 4.203125 54.6875 
L 13.1875 54.6875 
L 24.421875 12.015625 
L 35.59375 54.6875 
L 46.1875 54.6875 
L 57.421875 12.015625 
L 68.609375 54.6875 
L 77.59375 54.6875 
L 63.28125 0 
L 52.6875 0 
L 40.921875 44.828125 
L 29.109375 0 
L 18.5 0 
z
" id="DejaVuSans-77"/>
      <path d="M 30.609375 48.390625 
Q 23.390625 48.390625 19.1875 42.75 
Q 14.984375 37.109375 14.984375 27.296875 
Q 14.984375 17.484375 19.15625 11.84375 
Q 23.34375 6.203125 30.609375 6.203125 
Q 37.796875 6.203125 41.984375 11.859375 
Q 46.1875 17.53125 46.1875 27.296875 
Q 46.1875 37.015625 41.984375 42.703125 
Q 37.796875 48.390625 30.609375 48.390625 
z
M 30.609375 56 
Q 42.328125 56 49.015625 48.375 
Q 55.71875 40.765625 55.71875 27.296875 
Q 55.71875 13.875 49.015625 6.21875 
Q 42.328125 -1.421875 30.609375 -1.421875 
Q 18.84375 -1.421875 12.171875 6.21875 
Q 5.515625 13.875 5.515625 27.296875 
Q 5.515625 40.765625 12.171875 48.375 
Q 18.84375 56 30.609375 56 
z
" id="DejaVuSans-6f"/>
      <path d="M 4.890625 31.390625 
L 31.203125 31.390625 
L 31.203125 23.390625 
L 4.890625 23.390625 
z
" id="DejaVuSans-2d"/>
      <path d="M 48.6875 27.296875 
Q 48.6875 37.203125 44.609375 42.84375 
Q 40.53125 48.484375 33.40625 48.484375 
Q 26.265625 48.484375 22.1875 42.84375 
Q 18.109375 37.203125 18.109375 27.296875 
Q 18.109375 17.390625 22.1875 11.75 
Q 26.265625 6.109375 33.40625 6.109375 
Q 40.53125 6.109375 44.609375 11.75 
Q 48.6875 17.390625 48.6875 27.296875 
z
M 18.109375 46.390625 
Q 20.953125 51.265625 25.265625 53.625 
Q 29.59375 56 35.59375 56 
Q 45.5625 56 51.78125 48.09375 
Q 58.015625 40.1875 58.015625 27.296875 
Q 58.015625 14.40625 51.78125 6.484375 
Q 45.5625 -1.421875 35.59375 -1.421875 
Q 29.59375 -1.421875 25.265625 0.953125 
Q 20.953125 3.328125 18.109375 8.203125 
L 18.109375 0 
L 9.078125 0 
L 9.078125 75.984375 
L 18.109375 75.984375 
z
" id="DejaVuSans-62"/>
      <path d="M 45.40625 46.390625 
L 45.40625 75.984375 
L 54.390625 75.984375 
L 54.390625 0 
L 45.40625 0 
L 45.40625 8.203125 
Q 42.578125 3.328125 38.25 0.953125 
Q 33.9375 -1.421875 27.875 -1.421875 
Q 17.96875 -1.421875 11.734375 6.484375 
Q 5.515625 14.40625 5.515625 27.296875 
Q 5.515625 40.1875 11.734375 48.09375 
Q 17.96875 56 27.875 56 
Q 33.9375 56 38.25 53.625 
Q 42.578125 51.265625 45.40625 46.390625 
z
M 14.796875 27.296875 
Q 14.796875 17.390625 18.875 11.75 
Q 22.953125 6.109375 30.078125 6.109375 
Q 37.203125 6.109375 41.296875 11.75 
Q 45.40625 17.390625 45.40625 27.296875 
Q 45.40625 37.203125 41.296875 42.84375 
Q 37.203125 48.484375 30.078125 48.484375 
Q 22.953125 48.484375 18.875 42.84375 
Q 14.796875 37.203125 14.796875 27.296875 
z
" id="DejaVuSans-64"/>
      <path d="M 32.171875 -5.078125 
Q 28.375 -14.84375 24.75 -17.8125 
Q 21.140625 -20.796875 15.09375 -20.796875 
L 7.90625 -20.796875 
L 7.90625 -13.28125 
L 13.1875 -13.28125 
Q 16.890625 -13.28125 18.9375 -11.515625 
Q 21 -9.765625 23.484375 -3.21875 
L 25.09375 0.875 
L 2.984375 54.6875 
L 12.5 54.6875 
L 29.59375 11.921875 
L 46.6875 54.6875 
L 56.203125 54.6875 
z
" id="DejaVuSans-79"/>
     </defs>
     <g transform="translate(320.6325 223.113687)scale(0.1 -0.1)">
      <use xlink:href="#DejaVuSans-6b"/>
      <use x="57.910156" xlink:href="#DejaVuSans-31"/>
      <use x="121.533203" xlink:href="#DejaVuSans-3d"/>
      <use x="205.322266" xlink:href="#DejaVuSans-31"/>
      <use x="268.945312" xlink:href="#DejaVuSans-30"/>
      <use x="332.568359" xlink:href="#DejaVuSans-2c"/>
      <use x="364.355469" xlink:href="#DejaVuSans-74"/>
      <use x="403.564453" xlink:href="#DejaVuSans-77"/>
      <use x="485.351562" xlink:href="#DejaVuSans-6f"/>
      <use x="546.548828" xlink:href="#DejaVuSans-2d"/>
      <use x="582.632812" xlink:href="#DejaVuSans-62"/>
      <use x="646.109375" xlink:href="#DejaVuSans-6f"/>
      <use x="707.291016" xlink:href="#DejaVuSans-64"/>
      <use x="770.767578" xlink:href="#DejaVuSans-79"/>
     </g>
    </g>
    <g id="line2d_20">
     <path d="M 292.6325 234.291812 
L 312.6325 234.291812 
" style="fill:none;stroke:#0000ff;stroke-linecap:square;stroke-width:1.5;"/>
    </g>
    <g id="line2d_21">
     <g>
      <use style="fill:#0000ff;stroke:#0000ff;" x="302.6325" xlink:href="#m7db4b7d8f5" y="234.291812"/>
     </g>
    </g>
    <g id="text_15">
     <!-- k2=4,three-body -->
     <defs>
      <path d="M 54.890625 33.015625 
L 54.890625 0 
L 45.90625 0 
L 45.90625 32.71875 
Q 45.90625 40.484375 42.875 44.328125 
Q 39.84375 48.1875 33.796875 48.1875 
Q 26.515625 48.1875 22.3125 43.546875 
Q 18.109375 38.921875 18.109375 30.90625 
L 18.109375 0 
L 9.078125 0 
L 9.078125 75.984375 
L 18.109375 75.984375 
L 18.109375 46.1875 
Q 21.34375 51.125 25.703125 53.5625 
Q 30.078125 56 35.796875 56 
Q 45.21875 56 50.046875 50.171875 
Q 54.890625 44.34375 54.890625 33.015625 
z
" id="DejaVuSans-68"/>
      <path d="M 41.109375 46.296875 
Q 39.59375 47.171875 37.8125 47.578125 
Q 36.03125 48 33.890625 48 
Q 26.265625 48 22.1875 43.046875 
Q 18.109375 38.09375 18.109375 28.8125 
L 18.109375 0 
L 9.078125 0 
L 9.078125 54.6875 
L 18.109375 54.6875 
L 18.109375 46.1875 
Q 20.953125 51.171875 25.484375 53.578125 
Q 30.03125 56 36.53125 56 
Q 37.453125 56 38.578125 55.875 
Q 39.703125 55.765625 41.0625 55.515625 
z
" id="DejaVuSans-72"/>
     </defs>
     <g transform="translate(320.6325 237.791812)scale(0.1 -0.1)">
      <use xlink:href="#DejaVuSans-6b"/>
      <use x="57.910156" xlink:href="#DejaVuSans-32"/>
      <use x="121.533203" xlink:href="#DejaVuSans-3d"/>
      <use x="205.322266" xlink:href="#DejaVuSans-34"/>
      <use x="268.945312" xlink:href="#DejaVuSans-2c"/>
      <use x="300.732422" xlink:href="#DejaVuSans-74"/>
      <use x="339.941406" xlink:href="#DejaVuSans-68"/>
      <use x="403.320312" xlink:href="#DejaVuSans-72"/>
      <use x="444.402344" xlink:href="#DejaVuSans-65"/>
      <use x="505.925781" xlink:href="#DejaVuSans-65"/>
      <use x="567.449219" xlink:href="#DejaVuSans-2d"/>
      <use x="603.533203" xlink:href="#DejaVuSans-62"/>
      <use x="667.009766" xlink:href="#DejaVuSans-6f"/>
      <use x="728.191406" xlink:href="#DejaVuSans-64"/>
      <use x="791.667969" xlink:href="#DejaVuSans-79"/>
     </g>
    </g>
    <g id="line2d_22">
     <path d="M 292.6325 248.969937 
L 312.6325 248.969937 
" style="fill:none;stroke:#ffd700;stroke-linecap:square;stroke-width:1.5;"/>
    </g>
    <g id="line2d_23">
     <g>
      <use style="fill:#ffffff;stroke:#ff0000;stroke-linejoin:bevel;" x="302.6325" xlink:href="#m6013f6eedc" y="248.969937"/>
     </g>
    </g>
    <g id="text_16">
     <!-- k1=12,two-body -->
     <g transform="translate(320.6325 252.469937)scale(0.1 -0.1)">
      <use xlink:href="#DejaVuSans-6b"/>
      <use x="57.910156" xlink:href="#DejaVuSans-31"/>
      <use x="121.533203" xlink:href="#DejaVuSans-3d"/>
      <use x="205.322266" xlink:href="#DejaVuSans-31"/>
      <use x="268.945312" xlink:href="#DejaVuSans-32"/>
      <use x="332.568359" xlink:href="#DejaVuSans-2c"/>
      <use x="364.355469" xlink:href="#DejaVuSans-74"/>
      <use x="403.564453" xlink:href="#DejaVuSans-77"/>
      <use x="485.351562" xlink:href="#DejaVuSans-6f"/>
      <use x="546.548828" xlink:href="#DejaVuSans-2d"/>
      <use x="582.632812" xlink:href="#DejaVuSans-62"/>
      <use x="646.109375" xlink:href="#DejaVuSans-6f"/>
      <use x="707.291016" xlink:href="#DejaVuSans-64"/>
      <use x="770.767578" xlink:href="#DejaVuSans-79"/>
     </g>
    </g>
    <g id="line2d_24">
     <path d="M 292.6325 263.648062 
L 312.6325 263.648062 
" style="fill:none;stroke:#ffd700;stroke-linecap:square;stroke-width:1.5;"/>
    </g>
    <g id="line2d_25">
     <g>
      <use style="fill:#ffd700;stroke:#ffd700;" x="302.6325" xlink:href="#m29b0d9fdae" y="263.648062"/>
     </g>
    </g>
    <g id="text_17">
     <!-- k2=4,three-body -->
     <g transform="translate(320.6325 267.148062)scale(0.1 -0.1)">
      <use xlink:href="#DejaVuSans-6b"/>
      <use x="57.910156" xlink:href="#DejaVuSans-32"/>
      <use x="121.533203" xlink:href="#DejaVuSans-3d"/>
      <use x="205.322266" xlink:href="#DejaVuSans-34"/>
      <use x="268.945312" xlink:href="#DejaVuSans-2c"/>
      <use x="300.732422" xlink:href="#DejaVuSans-74"/>
      <use x="339.941406" xlink:href="#DejaVuSans-68"/>
      <use x="403.320312" xlink:href="#DejaVuSans-72"/>
      <use x="444.402344" xlink:href="#DejaVuSans-65"/>
      <use x="505.925781" xlink:href="#DejaVuSans-65"/>
      <use x="567.449219" xlink:href="#DejaVuSans-2d"/>
      <use x="603.533203" xlink:href="#DejaVuSans-62"/>
      <use x="667.009766" xlink:href="#DejaVuSans-6f"/>
      <use x="728.191406" xlink:href="#DejaVuSans-64"/>
      <use x="791.667969" xlink:href="#DejaVuSans-79"/>
     </g>
    </g>
    <g id="line2d_26">
     <path d="M 292.6325 278.326188 
L 312.6325 278.326188 
" style="fill:none;stroke:#008000;stroke-linecap:square;stroke-width:1.5;"/>
    </g>
    <g id="line2d_27">
     <g>
      <use style="fill:#ffffff;stroke:#ff0000;stroke-linejoin:bevel;" x="302.6325" xlink:href="#m6013f6eedc" y="278.326188"/>
     </g>
    </g>
    <g id="text_18">
     <!-- k1=14,two-body -->
     <g transform="translate(320.6325 281.826188)scale(0.1 -0.1)">
      <use xlink:href="#DejaVuSans-6b"/>
      <use x="57.910156" xlink:href="#DejaVuSans-31"/>
      <use x="121.533203" xlink:href="#DejaVuSans-3d"/>
      <use x="205.322266" xlink:href="#DejaVuSans-31"/>
      <use x="268.945312" xlink:href="#DejaVuSans-34"/>
      <use x="332.568359" xlink:href="#DejaVuSans-2c"/>
      <use x="364.355469" xlink:href="#DejaVuSans-74"/>
      <use x="403.564453" xlink:href="#DejaVuSans-77"/>
      <use x="485.351562" xlink:href="#DejaVuSans-6f"/>
      <use x="546.548828" xlink:href="#DejaVuSans-2d"/>
      <use x="582.632812" xlink:href="#DejaVuSans-62"/>
      <use x="646.109375" xlink:href="#DejaVuSans-6f"/>
      <use x="707.291016" xlink:href="#DejaVuSans-64"/>
      <use x="770.767578" xlink:href="#DejaVuSans-79"/>
     </g>
    </g>
    <g id="line2d_28">
     <path d="M 292.6325 293.004312 
L 312.6325 293.004312 
" style="fill:none;stroke:#008000;stroke-linecap:square;stroke-width:1.5;"/>
    </g>
    <g id="line2d_29">
     <g>
      <use style="fill:#008000;stroke:#008000;" x="302.6325" xlink:href="#m6e1bfdf610" y="293.004312"/>
     </g>
    </g>
    <g id="text_19">
     <!-- k2=4,three-body -->
     <g transform="translate(320.6325 296.504312)scale(0.1 -0.1)">
      <use xlink:href="#DejaVuSans-6b"/>
      <use x="57.910156" xlink:href="#DejaVuSans-32"/>
      <use x="121.533203" xlink:href="#DejaVuSans-3d"/>
      <use x="205.322266" xlink:href="#DejaVuSans-34"/>
      <use x="268.945312" xlink:href="#DejaVuSans-2c"/>
      <use x="300.732422" xlink:href="#DejaVuSans-74"/>
      <use x="339.941406" xlink:href="#DejaVuSans-68"/>
      <use x="403.320312" xlink:href="#DejaVuSans-72"/>
      <use x="444.402344" xlink:href="#DejaVuSans-65"/>
      <use x="505.925781" xlink:href="#DejaVuSans-65"/>
      <use x="567.449219" xlink:href="#DejaVuSans-2d"/>
      <use x="603.533203" xlink:href="#DejaVuSans-62"/>
      <use x="667.009766" xlink:href="#DejaVuSans-6f"/>
      <use x="728.191406" xlink:href="#DejaVuSans-64"/>
      <use x="791.667969" xlink:href="#DejaVuSans-79"/>
     </g>
    </g>
   </g>
  </g>
 </g>
 <defs>
  <clipPath id="pb6d9e13eb5">
   <rect height="266.112" width="357.12" x="57.6" y="41.472"/>
  </clipPath>
 </defs>
</svg>
